/* XPM */
static char * desktop_xpm[] = {
"20 16 113 2",
"  	c None",
". 	c #8E908B",
"+ 	c #8B8C88",
"@ 	c #8B8D88",
"# 	c #8A8C87",
"$ 	c #898B86",
"% 	c #8E8F8B",
"& 	c #898B87",
"* 	c #E8E8E6",
"= 	c #E9EAE7",
"- 	c #EAEAE7",
"; 	c #E9E9E6",
"> 	c #E8E9E6",
", 	c #E7E8E5",
"' 	c #E6E7E4",
") 	c #E6E7E3",
"! 	c #E5E6E2",
"~ 	c #E4E6E1",
"{ 	c #E3E5E1",
"] 	c #E0E2DE",
"^ 	c #ECECEA",
"/ 	c #204A87",
"( 	c #E1E3DE",
"_ 	c #EAEBE8",
": 	c #3E6397",
"< 	c #3D6196",
"[ 	c #476A9C",
"} 	c #5F7DA9",
"| 	c #426699",
"1 	c #355B92",
"2 	c #4E70A0",
"3 	c #7590B5",
"4 	c #728CB3",
"5 	c #6F8AB1",
"6 	c #E0E2DD",
"7 	c #406599",
"8 	c #EEEEEE",
"9 	c #CFD6E0",
"0 	c #6584AF",
"a 	c #40669C",
"b 	c #3C6399",
"c 	c #6A87B1",
"d 	c #6F8BB3",
"e 	c #6B88B1",
"f 	c #6785AE",
"g 	c #DEE1DB",
"h 	c #E8E9E5",
"i 	c #466CA0",
"j 	c #E2E2E2",
"k 	c #E5E5E5",
"l 	c #5F81AE",
"m 	c #466CA2",
"n 	c #5377A8",
"o 	c #6B8BB4",
"p 	c #6988B3",
"q 	c #6685B2",
"r 	c #6182AE",
"s 	c #DDDFDA",
"t 	c #4D73A7",
"u 	c #4E75A9",
"v 	c #6385B4",
"w 	c #597EAF",
"x 	c #4D76AA",
"y 	c #6487B5",
"z 	c #6789B6",
"A 	c #6184B2",
"B 	c #5D80AE",
"C 	c #DCDED8",
"D 	c #537BAD",
"E 	c #D3DBE4",
"F 	c #5880B3",
"G 	c #5A82B3",
"H 	c #668BB9",
"I 	c #6489B8",
"J 	c #6186B6",
"K 	c #5C82B3",
"L 	c #587FAF",
"M 	c #DADDD7",
"N 	c #E4E5E1",
"O 	c #E1E1E1",
"P 	c #5E88BA",
"Q 	c #648CBD",
"R 	c #648DBC",
"S 	c #628BBB",
"T 	c #5E87B9",
"U 	c #5882B4",
"V 	c #537CB1",
"W 	c #D9DCD5",
"X 	c #E2E4DF",
"Y 	c #5D85B7",
"Z 	c #608ABB",
"` 	c #638DBE",
" .	c #6690C1",
"..	c #6691C3",
"+.	c #6590C2",
"@.	c #628DC0",
"#.	c #5C88BB",
"$.	c #5783B7",
"%.	c #527DB2",
"&.	c #D7DBD4",
"*.	c #D6DAD2",
"=.	c #DDE0DA",
"-.	c #DFE1DB",
";.	c #DEE0DB",
">.	c #DBDED8",
",.	c #D9DCD6",
"'.	c #D8DBD4",
").	c #D6D9D2",
"!.	c #D5D9D1",
"~.	c #D4D8D1",
"{.	c #D4D7D0",
"].	c #D1D4CE",
"^.	c #8D8E8A",
"                                        ",
"                                        ",
"        . + + @ @ @ # # # # # # # $ $ % ",
"        & * = - ; > > , ' ) ! ! ~ { ] $ ",
"        & ^ / / / / / / / / / / / / ( $ ",
"        $ _ / : < [ } | 1 2 3 4 5 / 6 $ ",
"        $ = / 7 8 9 0 a b c d e f / g $ ",
"        $ h / i j k l m n o p q r / s $ ",
"        $ ' / t u v w x y z y A B / C $ ",
"        $ ! / D 8 E F G H I J K L / M $ ",
"        $ N / F O j P Q R S T U V / W $ ",
"        $ X / Y Z `  ...+.@.#.$.%./ &.$ ",
"        $ ( / / / / / / / / / / / / *.$ ",
"        $ =.-.;.s >.M ,.W '.).!.~.{.].$ ",
"        % $ $ # # # # # # # # # # # # ^.",
"                                        "};
