/* XPM */
static char * icewm_debian_xpm[] = {
"22 20 102 2",
"  	c #4C4C4C",
". 	c #707070",
"+ 	c #828282",
"@ 	c #626262",
"# 	c #5F5F5F",
"$ 	c #4D4D4D",
"% 	c #474747",
"& 	c #636363",
"* 	c #B4B4B4",
"= 	c #E2E2E2",
"- 	c #CFCFCF",
"; 	c #9D9D9D",
"> 	c #7C7C7C",
", 	c #414141",
"' 	c #424242",
") 	c #A1A1A1",
"! 	c #DCDCDC",
"~ 	c #DEDEDE",
"{ 	c #B0B0B0",
"] 	c #767676",
"^ 	c #949494",
"/ 	c #D6D6D6",
"( 	c #A4A4A4",
"_ 	c #464646",
": 	c #3C3C3C",
"< 	c #929292",
"[ 	c #D9D9D9",
"} 	c #BCBCBC",
"| 	c #161616",
"1 	c #232323",
"2 	c #272727",
"3 	c #262626",
"4 	c #1D1D1D",
"5 	c #343434",
"6 	c #C2C2C2",
"7 	c #3A3A3A",
"8 	c #686868",
"9 	c #D5D5D5",
"0 	c #8D8D8D",
"a 	c #252525",
"b 	c #2B2B2B",
"c 	c #333333",
"d 	c #373737",
"e 	c #383838",
"f 	c #353535",
"g 	c #2D2D2D",
"h 	c #C6C6C6",
"i 	c #5D5D5D",
"j 	c #393939",
"k 	c #7E7E7E",
"l 	c #1C1C1C",
"m 	c #2F2F2F",
"n 	c #3D3D3D",
"o 	c #444444",
"p 	c #BFBFBF",
"q 	c #575757",
"r 	c #666666",
"s 	c #C5C5C5",
"t 	c #222222",
"u 	c #323232",
"v 	c #797979",
"w 	c #727272",
"x 	c #5A5A5A",
"y 	c #363636",
"z 	c #CDCDCD",
"A 	c #989898",
"B 	c #7A7A7A",
"C 	c #313131",
"D 	c #616161",
"E 	c #494949",
"F 	c #292929",
"G 	c #303030",
"H 	c #2C2C2C",
"I 	c #C3C3C3",
"J 	c #5B5B5B",
"K 	c #A0A0A0",
"L 	c #565656",
"M 	c #6E6E6E",
"N 	c #A5A5A5",
"O 	c #888888",
"P 	c #404040",
"Q 	c #777777",
"R 	c #6F6F6F",
"S 	c #646464",
"T 	c #808080",
"U 	c #6B6B6B",
"V 	c #818181",
"W 	c #5C5C5C",
"X 	c #787878",
"Y 	c #2E2E2E",
"Z 	c #7D7D7D",
"` 	c #1E1E1E",
" .	c #3E3E3E",
"..	c #AEAEAE",
"+.	c #4F4F4F",
"@.	c #2A2A2A",
"#.	c #242424",
"$.	c #202020",
"%.	c #1F1F1F",
"&.	c #3B3B3B",
"*.	c #212121",
"=.	c #4E4E4E",
"                  . + @ # $                 ",
"% % % % % % % & * = = = = - ; > % % % % % % ",
", , , , , ' ) ! ~ { ] # @ ^ / ~ ( _ , , , , ",
": : : : : < [ } , | 1 2 3 4 5 6 [ ( : : : : ",
"7 7 7 ' 8 9 0 a b c d e e f g 3 h 9 i 7 7 7 ",
"e e e j 6 k l m d e e n o e d g > p q d e e ",
"e e e r s t u e e e v w x x 7 y n z q d e e ",
"e e d A B C e e e D E F G G d d H I J d e e ",
"d d 5 K L f d d y + g c f f 7 d f s i y d d ",
"d d 5 A $ y d d f M 5 d d d d d n N b y d d ",
"d d 5 O L y d d f ] P d n : : d Q & u d d d ",
"y y c R S f y y f : T 7 f f j U V 1 f y y y ",
"y y 5 W X f y y f Y o < . Z T $ ` C y y y y ",
"f f 5  ...+.f f f c F @.a #.$.F m f f f f f ",
"f f 5 @.B O 5 f f f c Y m Y m 5 f f f f f f ",
"f f f u G ( o f f f f f f f f f f f f f f f ",
"f f f f @.W Z e f f f f f f f f f f f f f f ",
"f f f f c %.& . e f f f f f f f f f f f f f ",
"f f f f f C %.W w &.f f f f f f f f f f f f ",
"f f f f f f G *.F @ =.&.f f f f f f f f f f "};
