/* XPM */
static char * icewm_archlinux_xpm[] = {
"22 20 91 1",
" 	c None",
".	c #4C4C4C",
"+	c #4B4B4B",
"@	c #676767",
"#	c #686868",
"$	c #474747",
"%	c #444444",
"&	c #979797",
"*	c #9B9B9B",
"=	c #414141",
"-	c #484848",
";	c #CBCBCB",
">	c #CDCDCD",
",	c #3C3C3C",
"'	c #3B3B3B",
")	c #787878",
"!	c #808080",
"~	c #3A3A3A",
"{	c #383838",
"]	c #B3B3B3",
"^	c #C6C6C6",
"/	c #BBBBBB",
"(	c #BEBEBE",
"_	c #C2C2C2",
":	c #6C6C6C",
"<	c #373737",
"[	c #363636",
"}	c #848484",
"|	c #6B6B6B",
"1	c #B4B4B4",
"2	c #BDBDBD",
"3	c #ACACAC",
"4	c #393939",
"5	c #5C5C5C",
"6	c #B8B8B8",
"7	c #A0A0A0",
"8	c #6A6A6A",
"9	c #9D9D9D",
"0	c #A6A6A6",
"a	c #606060",
"b	c #AFAFAF",
"c	c #696969",
"d	c #9C9C9C",
"e	c #ABABAB",
"f	c #A1A1A1",
"g	c #353535",
"h	c #646464",
"i	c #9F9F9F",
"j	c #4A4A4A",
"k	c #5D5D5D",
"l	c #A5A5A5",
"m	c #989898",
"n	c #545454",
"o	c #2B2B2B",
"p	c #282828",
"q	c #9A9A9A",
"r	c #343434",
"s	c #333333",
"t	c #313131",
"u	c #666666",
"v	c #939393",
"w	c #898989",
"x	c #2D2D2D",
"y	c #2E2E2E",
"z	c #888888",
"A	c #969696",
"B	c #757575",
"C	c #8B8B8B",
"D	c #303030",
"E	c #7F7F7F",
"F	c #777777",
"G	c #404040",
"H	c #8D8D8D",
"I	c #8F8F8F",
"J	c #737373",
"K	c #272727",
"L	c #323232",
"M	c #8A8A8A",
"N	c #3F3F3F",
"O	c #5A5A5A",
"P	c #222222",
"Q	c #1F1F1F",
"R	c #2C2C2C",
"S	c #202020",
"T	c #242424",
"U	c #424242",
"V	c #5F5F5F",
"W	c #252525",
"X	c #262626",
"Y	c #5E5E5E",
"Z	c #2F2F2F",
".........+@#+.........",
"$$$$$$$$$%&*%$$$$$$$$$",
"=========-;>.=========",
",,,,,,,,');;!~,,,,,,,,",
"~~~~~~~~{]^^/,~~~~~~~~",
"{{{{{{{{-(___:<{{{{{{{",
"{{{{{{{[}|12234{{{{{{{",
"{{{{{{<56676668<{{{{{{",
"<<<<<<[911111104<<<<<<",
"<<<<<[abbbbbbbbc[<<<<<",
"<<<<<{deeeeeeeef~<<<<<",
"[[[[gh000ijkl000#g[[[[",
"[[[[4mfffnop+fffq~[[[[",
"gggr@9999gsst9999urggg",
"ggg,vmmmwxggyzmAB84ggg",
"ggs#vvvvCDggtEvvvF'rgg",
"ggGHIIJ-KtggLp$JIIMNgg",
"gscwOPQRtggggLRSTOw#sg",
"gUVTWDsrgggggggstXWYUg",
"rZKDrggggggggggggrDKDr"};
