/* XPM */
static char * icewm_xpm[] = {
"22 20 114 2",
"  	c None",
". 	c #4C4C4C",
"+ 	c #656565",
"@ 	c #B1B1B1",
"# 	c #626262",
"$ 	c #474747",
"% 	c #464646",
"& 	c #454545",
"* 	c #535353",
"= 	c #4A4A4A",
"- 	c #434343",
"; 	c #A2A2A2",
"> 	c #D6D6D6",
", 	c #A1A1A1",
"' 	c #444444",
") 	c #414141",
"! 	c #404040",
"~ 	c #737373",
"{ 	c #C5C5C5",
"] 	c #D1D1D1",
"^ 	c #767676",
"/ 	c #8E8E8E",
"( 	c #8D8D8D",
"_ 	c #3D3D3D",
": 	c #3C3C3C",
"< 	c #555555",
"[ 	c #525252",
"} 	c #CCCCCC",
"| 	c #B0B0B0",
"1 	c #7A7A7A",
"2 	c #797979",
"3 	c #353535",
"4 	c #3A3A3A",
"5 	c #2D2D2D",
"6 	c #929292",
"7 	c #C8C8C8",
"8 	c #7B7B7B",
"9 	c #606060",
"0 	c #393939",
"a 	c #383838",
"b 	c #373737",
"c 	c #C3C3C3",
"d 	c #616161",
"e 	c #323232",
"f 	c #262626",
"g 	c #6D6D6D",
"h 	c #BFBFBF",
"i 	c #B4B4B4",
"j 	c #3F3F3F",
"k 	c #686868",
"l 	c #BEBEBE",
"m 	c #BDBDBD",
"n 	c #4D4D4D",
"o 	c #343434",
"p 	c #2B2B2B",
"q 	c #B9B9B9",
"r 	c #818181",
"s 	c #2F2F2F",
"t 	c #303030",
"u 	c #5C5C5C",
"v 	c #AAAAAA",
"w 	c #363636",
"x 	c #8B8B8B",
"y 	c #B5B5B5",
"z 	c #969696",
"A 	c #313131",
"B 	c #333333",
"C 	c #494949",
"D 	c #939393",
"E 	c #A7A7A7",
"F 	c #1E1E1E",
"G 	c #1C1C1C",
"H 	c #9F9F9F",
"I 	c #ABABAB",
"J 	c #A8A8A8",
"K 	c #A3A3A3",
"L 	c #7E7E7E",
"M 	c #808080",
"N 	c #282828",
"O 	c #515151",
"P 	c #6C6C6C",
"Q 	c #A6A6A6",
"R 	c #545454",
"S 	c #4E4E4E",
"T 	c #A4A4A4",
"U 	c #959595",
"V 	c #3E3E3E",
"W 	c #7D7D7D",
"X 	c #9D9D9D",
"Y 	c #5E5E5E",
"Z 	c #868686",
"` 	c #9C9C9C",
" .	c #4B4B4B",
"..	c #989898",
"+.	c #8C8C8C",
"@.	c #636363",
"#.	c #898989",
"$.	c #848484",
"%.	c #858585",
"&.	c #292929",
"*.	c #484848",
"=.	c #8F8F8F",
"-.	c #949494",
";.	c #909090",
">.	c #2A2A2A",
",.	c #585858",
"'.	c #595959",
").	c #252525",
"!.	c #1D1D1D",
"~.	c #2E2E2E",
"{.	c #424242",
"].	c #6F6F6F",
"^.	c #8A8A8A",
"/.	c #222222",
". . . . . . . . . . . . . . . + @ @ # . . . ",
"$ $ $ $ $ $ $ $ $ $ % & * = - ; > > , ' $ $ ",
") ) ) ) ) ) ) ) ! ~ ; { ] ] ^ / ] ] ( _ ) ) ",
": : : : : : : # < [ } } } } | ! 1 2 3 4 : : ",
"4 4 4 4 4 4 * { ; 5 6 7 7 7 7 @ 2 8 9 0 4 4 ",
"a a a a a b ; c c d e : f b g h c c i j a a ",
"a a a a b k l l m n o o o o p 0 q l l r b a ",
"a a b ) o 6 q q + s b a a a b t u q q v 3 a ",
"b w x y z A i y 4 3 b b b b b 3 B i y y $ b ",
"b C | | | [ D E s b b b b b b b B F G F s w ",
"w t H I J e K v 4 b b b b b b b b L M M & b ",
"w e N O p P Q Q R 3 w w w w w 3 S E E T A 3 ",
"w w B t s P ; ; U V w w w w w 0 ( ; ; W A w ",
"3 3 3 3 B p U X X Y B o o o % Z X X ` 4 e 3 ",
"3 3 3 3 3 t  ...+.p @.x 1 #.....$.%.u 5 3 3 ",
"3 3 3 3 3 o &.# *.a =.-.-.-.;.3 w a f o 3 3 ",
"3 3 3 3 3 3 B N >.u / =.=.=.< ,.=.=.'.o 3 3 ",
"3 3 3 3 3 3 3 o B ).!.~.{.: >.].^.^.].e 3 3 ",
"3 3 3 3 3 3 3 3 3 o e A t A t {.$.$.j e 3 3 ",
"3 3 3 3 3 3 3 3 3 3 3 3 3 3 o >././.>.o 3 3 "};
