/* XPM */
static char * icewm_xpm[] = {
"22 20 134 2",
"  	c None",
". 	c #4C4C4C",
"+ 	c #4B4B4B",
"@ 	c #555555",
"# 	c #5B5B5B",
"$ 	c #474747",
"% 	c #4E4E4E",
"& 	c #828282",
"* 	c #B8B8B8",
"= 	c #CFCFCF",
"- 	c #CACACA",
"; 	c #BCBCBC",
"> 	c #979797",
", 	c #5C5C5C",
"' 	c #464646",
") 	c #414141",
"! 	c #535353",
"~ 	c #BFBFBF",
"{ 	c #DBDBDB",
"] 	c #D6D6D6",
"^ 	c #D1D1D1",
"/ 	c #CBCBCB",
"( 	c #C6C6C6",
"_ 	c #C0C0C0",
": 	c #777777",
"< 	c #3C3C3C",
"[ 	c #575757",
"} 	c #C3C3C3",
"| 	c #D5D5D5",
"1 	c #D4D4D4",
"2 	c #585858",
"3 	c #6B6B6B",
"4 	c #BABABA",
"5 	c #BBBBBB",
"6 	c #B5B5B5",
"7 	c #929292",
"8 	c #484848",
"9 	c #3A3A3A",
"0 	c #383838",
"a 	c #A7A7A7",
"b 	c #CDCDCD",
"c 	c #757575",
"d 	c #313131",
"e 	c #363636",
"f 	c #353535",
"g 	c #AEAEAE",
"h 	c #B4B4B4",
"i 	c #AFAFAF",
"j 	c #A3A3A3",
"k 	c #5F5F5F",
"l 	c #393939",
"m 	c #4A4A4A",
"n 	c #C9C9C9",
"o 	c #CCCCCC",
"p 	c #8C8C8C",
"q 	c #333333",
"r 	c #666666",
"s 	c #B3B3B3",
"t 	c #A9A9A9",
"u 	c #6D6D6D",
"v 	c #373737",
"w 	c #C2C2C2",
"x 	c #C5C5C5",
"y 	c #494949",
"z 	c #B0B0B0",
"A 	c #ACACAC",
"B 	c #A2A2A2",
"C 	c #9D9D9D",
"D 	c #656565",
"E 	c #B9B9B9",
"F 	c #C1C1C1",
"G 	c #B7B7B7",
"H 	c #626262",
"I 	c #434343",
"J 	c #949494",
"K 	c #B2B2B2",
"L 	c #ADADAD",
"M 	c #A4A4A4",
"N 	c #A0A0A0",
"O 	c #9B9B9B",
"P 	c #969696",
"Q 	c #323232",
"R 	c #AAAAAA",
"S 	c #A6A6A6",
"T 	c #989898",
"U 	c #6C6C6C",
"V 	c #303030",
"W 	c #272727",
"X 	c #767676",
"Y 	c #B6B6B6",
"Z 	c #B1B1B1",
"` 	c #9F9F9F",
" .	c #9A9A9A",
"..	c #919191",
"+.	c #727272",
"@.	c #343434",
"#.	c #3D3D3D",
"$.	c #9E9E9E",
"%.	c #939393",
"&.	c #8E8E8E",
"*.	c #515151",
"=.	c #ABABAB",
"-.	c #A5A5A5",
";.	c #8F8F8F",
">.	c #505050",
",.	c #909090",
"'.	c #747474",
").	c #262626",
"!.	c #A1A1A1",
"~.	c #999999",
"{.	c #9C9C9C",
"].	c #5E5E5E",
"^.	c #232323",
"/.	c #7F7F7F",
"(.	c #959595",
"_.	c #898989",
":.	c #3F3F3F",
"<.	c #696969",
"[.	c #292929",
"}.	c #2C2C2C",
"|.	c #858585",
"1.	c #8B8B8B",
"2.	c #8A8A8A",
"3.	c #212121",
"4.	c #2E2E2E",
"5.	c #2A2A2A",
"6.	c #707070",
"7.	c #868686",
"8.	c #7B7B7B",
"9.	c #565656",
"0.	c #202020",
"a.	c #1E1E1E",
"b.	c #1C1C1C",
"c.	c #282828",
". . . . . . . . + @ # + + . . . . . . . . . ",
"$ $ $ $ $ $ % & * = - ; > , ' $ $ $ $ $ $ $ ",
") ) ) ) ) ! ~ { ] ^ / ( _ * : ) ) ) ) ) ) ) ",
"< < < < [ } | 1 2 < 3 4 _ 5 6 7 8 < < < < < ",
"9 9 9 0 a b ^ c d e d f g 4 h i j k l 9 9 9 ",
"0 0 0 m ( n o p e 0 0 q r * s g t j u v 0 0 ",
"0 0 v r w x ( * y 0 0 e y 6 z A a B C D v 0 ",
"0 0 v l E _ F w G H I < J K L t M N O P m 0 ",
"v v v Q ) K ; ; ; 4 * 6 K g R S B C T J U f ",
"v v v v V W X Y Y 6 s Z g R a j `  .P ..+.@.",
"v v v v v @.#.$.Z z g A t S j ` O > %.&.2 @.",
"e e e e e *.j A A =.t a -.B ` O > J ;.u W f ",
"e e e e >.B a a S -.M B N C  .> J ,.'.).q e ",
"f f f v %.N !.!.!.N ` C O ~.P %.,.: ).Q f f ",
"f f @.D  .O {.{.{.O  .T P J ..&.].^.Q f f f ",
"f f Q /.(.P P > P P (.%...;._.:.).q f f f f ",
"f f Q <.,.........,.;.&.p U [.}.@.f f f f f ",
"f f q q |.1.p p p 1.2.'.Q 3.d f f f f f f f ",
"f f f 4.5.6.7.7.8.9.Q 0.V @.f f f f f f f f ",
"f f f f V 3.a.3.b.c.d q f f f f f f f f f f "};
