/* XPM */
static char * icewm_xpm[] = {
"22 20 182 2",
"  	c None",
". 	c #4C4C4C",
"+ 	c #474747",
"@ 	c #414141",
"# 	c #3C3C3C",
"$ 	c #3A3A3A",
"% 	c #3E3E3E",
"& 	c #676768",
"* 	c #8E8E8F",
"= 	c #929293",
"- 	c #8D8D8E",
"; 	c #808081",
"> 	c #5E5E5F",
", 	c #3F3F3F",
"' 	c #393939",
") 	c #5D5D5D",
"! 	c #515151",
"~ 	c #3B3B3B",
"{ 	c #383838",
"] 	c #3D3D3D",
"^ 	c #757576",
"/ 	c #A3A3A3",
"( 	c #CDCDCF",
"_ 	c #D4D4D6",
": 	c #D3D3D5",
"< 	c #D2D3D4",
"[ 	c #D2D2D4",
"} 	c #D1D1D3",
"| 	c #D0D1D3",
"1 	c #CCCCCE",
"2 	c #ACACAF",
"3 	c #BFBFC1",
"4 	c #CECED0",
"5 	c #BDBDBF",
"6 	c #8B8B8E",
"7 	c #565656",
"8 	c #5C5C5C",
"9 	c #B6B7B8",
"0 	c #CCCDCE",
"a 	c #CBCBCD",
"b 	c #CACBCD",
"c 	c #CACACC",
"d 	c #C9CACB",
"e 	c #C8C9CB",
"f 	c #C8C8CA",
"g 	c #C7C8C9",
"h 	c #C6C7C9",
"i 	c #C6C6C8",
"j 	c #C5C6C8",
"k 	c #88898A",
"l 	c #767778",
"m 	c #4D4E4E",
"n 	c #868888",
"o 	c #C4C5C7",
"p 	c #C5C5C7",
"q 	c #C4C4C6",
"r 	c #C3C4C5",
"s 	c #C2C3C5",
"t 	c #C2C2C4",
"u 	c #C1C2C3",
"v 	c #C0C1C3",
"w 	c #C0C1C2",
"x 	c #BFC0C2",
"y 	c #BEBFC1",
"z 	c #BEBFC0",
"A 	c #B9BABC",
"B 	c #B8B9BB",
"C 	c #717373",
"D 	c #505051",
"E 	c #636464",
"F 	c #929394",
"G 	c #373737",
"H 	c #747475",
"I 	c #BDBEC0",
"J 	c #BDBEBF",
"K 	c #BCBDBF",
"L 	c #BBBCBE",
"M 	c #BABBBD",
"N 	c #B9BBBC",
"O 	c #B8B9BA",
"P 	c #B7B8BA",
"Q 	c #B6B7B9",
"R 	c #B5B6B8",
"S 	c #B3B5B6",
"T 	c #535556",
"U 	c #6F7071",
"V 	c #6B6C6C",
"W 	c #868788",
"X 	c #757677",
"Y 	c #555556",
"Z 	c #B4B6B6",
"` 	c #939496",
" .	c #797A7B",
"..	c #A1A2A3",
"+.	c #B2B3B5",
"@.	c #B1B3B4",
"#.	c #B1B2B4",
"$.	c #B0B2B3",
"%.	c #B0B1B2",
"&.	c #AFB0B2",
"*.	c #AEB0B1",
"=.	c #AEAFB1",
"-.	c #ADAEB0",
";.	c #ACAEAF",
">.	c #ACADAF",
",.	c #ABADAE",
"'.	c #9B9D9E",
").	c #6D6E70",
"!.	c #6E6E6E",
"~.	c #636566",
"{.	c #7D7E80",
"].	c #AAABAD",
"^.	c #313131",
"/.	c #545556",
"(.	c #646566",
"_.	c #2A2A2A",
":.	c #6E6F70",
"<.	c #A9AAAC",
"[.	c #A8AAAB",
"}.	c #A7A9AB",
"|.	c #9EA0A1",
"1.	c #A5A7A8",
"2.	c #A5A7A9",
"3.	c #A4A6A7",
"4.	c #7E7F80",
"5.	c #666868",
"6.	c #6C6E6E",
"7.	c #4F4F50",
"8.	c #2F2F2F",
"9.	c #252525",
"0.	c #999A9C",
"a.	c #636465",
"b.	c #8F9092",
"c.	c #7A7B7C",
"d.	c #97999C",
"e.	c #343434",
"f.	c #919394",
"g.	c #9FA1A3",
"h.	c #535455",
"i.	c #1A1A1A",
"j.	c #232324",
"k.	c #5A5B5B",
"l.	c #9A9C9D",
"m.	c #9B9E9F",
"n.	c #292929",
"o.	c #272727",
"p.	c #262626",
"q.	c #303030",
"r.	c #353535",
"s.	c #8C8E8F",
"t.	c #686969",
"u.	c #636363",
"v.	c #78797A",
"w.	c #363737",
"x.	c #808181",
"y.	c #5F6060",
"z.	c #454646",
"A.	c #97999A",
"B.	c #343535",
"C.	c #3E3F40",
"D.	c #929495",
"E.	c #474848",
"F.	c #363636",
"G.	c #4D4E4F",
"H.	c #404041",
"I.	c #3E3F3F",
"J.	c #7A7C7D",
"K.	c #2C2C2C",
"L.	c #333333",
"M.	c #282929",
"N.	c #484A4A",
"O.	c #666769",
"P.	c #888B8C",
"Q.	c #707272",
"R.	c #777A7A",
"S.	c #747677",
"T.	c #2D2D2D",
"U.	c #222222",
"V.	c #424344",
"W.	c #333435",
"X.	c #232323",
"Y.	c #323232",
". . . . . . . . . . . . . . . . . . . . . . ",
"+ + + + + + + + + + + + + + + + + + + + + + ",
"@ @ @ @ @ @ @ @ @ @ @ @ @ @ @ @ @ @ @ @ @ @ ",
"# # # # # # # # # # # # # # # # # # # # # # ",
"$ $ $ $ $ $ $ % & * = - ; > , ' ) ! ~ $ $ $ ",
"{ { { { ] ^ / ( _ : < [ } | 1 2 3 4 5 6 7 { ",
"{ { { 8 9 ( 0 1 a b c d e f g h i j k $ l m ",
"{ { n o p o q r s t u v w x y z A B C D E F ",
"G H I J K L L M N A B O P Q 9 R S T U V W X ",
"Y Z R `  ...+.@.#.$.%.&.*.=.-.;.>.,.'.).!.~.",
"{.].^./.(._.:.<.[.}.|.1.2.1.3.4.5.6.U 7.8.9.",
"0.U a.b.c.d.e.f.g.h.i.j.k.l.m.n.o.p.o.q.e.r.",
"s.t.u.v.w.x.y.z.A.B.e.e.n.C.D.E.r.r.r.F.F.F.",
"G.s.H.E.I.J.Y n.K.L.r.r.e.K.M.N.e.r.r.r.r.r.",
"n.O.P.Q.R.S._.e.L.e.r.r.r.r.L.T.r.r.r.r.r.r.",
"e.U.p.V.W.X.L.r.r.r.r.r.r.r.r.r.r.r.r.r.r.r.",
"r.e.L.8.Y.e.r.r.r.r.r.r.r.r.r.r.r.r.r.r.r.r.",
"r.r.r.r.r.r.r.r.r.r.r.r.r.r.r.r.r.r.r.r.r.r.",
"r.r.r.r.r.r.r.r.r.r.r.r.r.r.r.r.r.r.r.r.r.r.",
"r.r.r.r.r.r.r.r.r.r.r.r.r.r.r.r.r.r.r.r.r.r."};
