/* XPM */
static char * taskbuttonminimized_xpm[] = {
"1 25 12 1",
" 	c None",
".	c #565656",
"+	c #525252",
"@	c #4C4C4C",
"#	c #474747",
"$	c #414141",
"%	c #3C3C3C",
"&	c #3A3A3A",
"*	c #383838",
"=	c #373737",
"-	c #363636",
";	c #353535",
".",
"+",
"@",
"#",
"$",
"%",
"&",
"*",
"*",
"*",
"=",
"=",
"=",
"-",
"-",
";",
";",
";",
";",
";",
";",
";",
";",
";",
";"};
