/* XPM */
static char * taskbuttonactive_xpm[] = {
"1 25 16 1",
" 	c None",
".	c #111111",
"+	c #151515",
"@	c #191919",
"#	c #1B1B1B",
"$	c #1D1D1D",
"%	c #202020",
"&	c #222222",
"*	c #212121",
"=	c #1F1F1F",
"-	c #1C1C1C",
";	c #1A1A1A",
">	c #161616",
",	c #141414",
"'	c #000000",
")	c #353535",
".",
"+",
"@",
"#",
"$",
"%",
"%",
"&",
"&",
"&",
"&",
"&",
"*",
"=",
"=",
"$",
"-",
";",
"@",
">",
",",
".",
".",
"'",
")"};
