/* XPM */
static char * windows_xpm[] = {
"20 20 127 2",
"  	c None",
". 	c #CCCCCC",
"+ 	c #E7E7E7",
"@ 	c #E8E8E8",
"# 	c #E2E2E2",
"$ 	c #B2B2B2",
"% 	c #C1C1C1",
"& 	c #CACACA",
"* 	c #CCCCCB",
"= 	c #D3D3D3",
"- 	c #C3C3C3",
"; 	c #CFCFCF",
"> 	c #CFCFCE",
", 	c #C9C9C9",
"' 	c #ABAAAE",
") 	c #B1B1B3",
"! 	c #B3B3B3",
"~ 	c #B7B7B9",
"{ 	c #BCBCBF",
"] 	c #B9B8BD",
"^ 	c #B9B8BE",
"/ 	c #BAB9BE",
"( 	c #BAB9BF",
"_ 	c #BABABF",
": 	c #BBBABF",
"< 	c #BBBBC0",
"[ 	c #BCBBC0",
"} 	c #BDBCC1",
"| 	c #BEBDC1",
"1 	c #BFBEC2",
"2 	c #B4B4B7",
"3 	c #C4C4C6",
"4 	c #E3E3E4",
"5 	c #E6E6E6",
"6 	c #B4B3B7",
"7 	c #C8C7C9",
"8 	c #E9E9E9",
"9 	c #EAEAEA",
"0 	c #EDEDEC",
"a 	c #B8B7BB",
"b 	c #CACACC",
"c 	c #ECECEC",
"d 	c #EEEEEE",
"e 	c #DDDFE8",
"f 	c #DBDFEA",
"g 	c #DBDEEA",
"h 	c #DDE1EC",
"i 	c #C3C7D4",
"j 	c #CDCDCF",
"k 	c #F1F1F1",
"l 	c #F3F3F3",
"m 	c #F1F1F2",
"n 	c #C9D3E1",
"o 	c #BCCADA",
"p 	c #BCCBDA",
"q 	c #BDCBDA",
"r 	c #AABAD1",
"s 	c #8A9EBF",
"t 	c #8C9EBF",
"u 	c #9CACC8",
"v 	c #8296BA",
"w 	c #CFCFD1",
"x 	c #F5F5F6",
"y 	c #F8F8F8",
"z 	c #F6F6F7",
"A 	c #C8D2E1",
"B 	c #C4D0DF",
"C 	c #C4D1DF",
"D 	c #C5D1E0",
"E 	c #D1D1D2",
"F 	c #FAFAFA",
"G 	c #FDFDFD",
"H 	c #FAFBFB",
"I 	c #CDD4E2",
"J 	c #D4D6D9",
"K 	c #D4D5DA",
"L 	c #D4D5D9",
"M 	c #D4D6DA",
"N 	c #D3D5DA",
"O 	c #D3D2D4",
"P 	c #FBFBFC",
"Q 	c #FEFEFE",
"R 	c #FBFCFC",
"S 	c #D3D8E6",
"T 	c #E3E2E1",
"U 	c #E1E1E1",
"V 	c #E0E0E2",
"W 	c #D3D3D4",
"X 	c #FCFCFD",
"Y 	c #D4D9E7",
"Z 	c #E9E8E7",
"` 	c #E6E6E7",
" .	c #F0EFF0",
"..	c #F0F0F1",
"+.	c #D5D9E7",
"@.	c #EFEEED",
"#.	c #EDEDED",
"$.	c #EBECED",
"%.	c #A5A5A5",
"&.	c #A3A4A5",
"*.	c #CACFDD",
"=.	c #F5F4F3",
"-.	c #F1F2F3",
";.	c #D0D6E7",
">.	c #FCFBFA",
",.	c #F9F9F9",
"'.	c #F8F8F9",
").	c #CFD5E8",
"!.	c #FFFFFE",
"~.	c #CAD1E5",
"{.	c #FAFAFC",
"].	c #C4CCE3",
"^.	c #FFFFFF",
"/.	c #FDFCFD",
"(.	c #FEFDFD",
"_.	c #FDFDFE",
":.	c #FEFDFE",
"<.	c #FBFBFD",
"[.	c #A2B2CF",
"}.	c #AEBED8",
"|.	c #AEBDD7",
"1.	c #AFBDD8",
"2.	c #AFBED8",
"3.	c #B0BED8",
"4.	c #B0BED9",
"5.	c #B1BFD9",
"6.	c #B1BED9",
"                                        ",
". + @ @ @ @ @ @ @ @ # $ % & * =         ",
"- ; ; ; ; ; ; ; > ; , ' ) ! ~ -         ",
"{ ] ^ / ( _ : : < [ [ } | | 1 2         ",
"3 4 5 5 5 5 5 5 5 5 5 5 5 5 @ 6         ",
"7 + 8 8 9 9 9 9 9 9 9 9 9 9 0 a         ",
"b c d d e f g g g g g g g g h i         ",
"j k l m n o p p p p p p p q r s t u v   ",
"w x y z A B B B B B B B B B C D D D D   ",
"E F G H I J K K K K K K K K K K L M N   ",
"O P Q R S T U U U U U U U U U U U U V   ",
"W P Q X Y Z + + + + + + + + + + + + `   ",
"=  .m ..+.@.#.#.#.#.#.#.#.#.#.#.#.#.$.  ",
"  %.%.&.*.=.l l l l l l l l l l l l -.  ",
"        ;.>.,.,.,.,.,.,.,.,.,.,.,.,.'.  ",
"        ).!.G G G G G G G G G G G G P   ",
"        ~.!.G G G G G G G G G G G G {.  ",
"        ].^././././.G G G (.(._._.:.<.  ",
"        [.}.|.|.1.1.2.3.3.3.4.4.5.5.6.  ",
"                                        "};
