/* XPM */
static char * workspacebuttonactive_xpm[] = {
"1 25 10 1",
" 	c None",
".	c #90B2D2",
"+	c #8DAECF",
"@	c #88A9CB",
"#	c #82A3C6",
"$	c #7C9EC1",
"%	c #7798BC",
"&	c #7192B7",
"*	c #6D8EB3",
"=	c #6A8BB1",
".",
"+",
"@",
"#",
"$",
"%",
"&",
"*",
"=",
"=",
"=",
"=",
"=",
"=",
"=",
"=",
"=",
"=",
"=",
"=",
"=",
"=",
"=",
"=",
"="};
