/* XPM */
static char * closeI_xpm[] = {
"19 38 79 1",
" 	c None",
".	c #DDDBD9",
"+	c #D7D5D3",
"@	c #BDBCBA",
"#	c #D8D6D4",
"$	c #BCBBB9",
"%	c #BEBDBB",
"&	c #BBBAB9",
"*	c #BAB8B7",
"=	c #D9D7D5",
"-	c #B9B7B6",
";	c #E5E4E2",
">	c #C9C8C7",
",	c #C1C0BF",
"'	c #BCBAB9",
")	c #C9C8C8",
"!	c #E6E4E3",
"~	c #DFDDDB",
"{	c #E7E6E4",
"]	c #CCCBCA",
"^	c #C3C3C2",
"/	c #C4C3C2",
"(	c #CDCDCC",
"_	c #E8E7E6",
":	c #DEDCDB",
"<	c #DCDAD8",
"[	c #CDCCCB",
"}	c #DBD9D7",
"|	c #C5C4C2",
"1	c #CAC9C8",
"2	c #D3D2D1",
"3	c #D1D1D0",
"4	c #CBCAC9",
"5	c #C5C3C2",
"6	c #CAC9C7",
"7	c #CECDCC",
"8	c #D4D3D3",
"9	c #E7E6E5",
"0	c #E6E5E3",
"a	c #D8D7D6",
"b	c #DEDCDA",
"c	c #D8D8D7",
"d	c #EAE8E7",
"e	c #DAD7D5",
"f	c #D3D1CF",
"g	c #B8B7B5",
"h	c #D4D2D0",
"i	c #B7B6B4",
"j	c #B9B8B6",
"k	c #B6B5B4",
"l	c #B5B3B1",
"m	c #D5D3D1",
"n	c #B4B1B0",
"o	c #E2E1DF",
"p	c #BCBBBA",
"q	c #B7B5B4",
"r	c #C4C3C3",
"s	c #E3E1E0",
"t	c #DCDAD7",
"u	c #E4E3E1",
"v	c #C7C6C5",
"w	c #BEBEBD",
"x	c #BFBEBD",
"y	c #C9C9C7",
"z	c #E5E4E3",
"A	c #D9D6D4",
"B	c #C9C7C6",
"C	c #C0BFBD",
"D	c #C5C4C3",
"E	c #CFCECD",
"F	c #C6C5C4",
"G	c #C0BEBD",
"H	c #D0CFCF",
"I	c #E4E3E2",
"J	c #E3E2E0",
"K	c #D4D3D2",
"L	c #DBD9D6",
"M	c #D4D4D3",
"N	c #E8E5E4",
"...................",
"...................",
"...................",
"...................",
"...................",
"...................",
".....+@#..+$+......",
".....%&*=+-&%......",
".....;>,@',)!......",
".....~{]^/(_:......",
"......<[>>]}.......",
".....=|12345=......",
".....678_9876......",
".....0a_b~_c0......",
".....~d~..~d~......",
"...................",
"...................",
"...................",
"...................",
"...................",
"...................",
"..eeeeeeeeeeeeeee..",
"..eeeeeeeeeeeeeee..",
"..eeeeeeeeeeeeeee..",
"..eeefgheefifeeee..",
"..eeejklmfnkjeeee..",
"..eeeo/pgqprseeee..",
"..eeetuvwxyz}eeee..",
"..eeeeAB//v+eeeee..",
"..eeemCDE(FGmeeee..",
"..eee|6HzIH6|eeee..",
"..eeeJKzLtzMJeeee..",
"..eeetNteetNteeee..",
"..eeeeeeeeeeeeeee..",
"..eeeeeeeeeeeeeee..",
"..eeeeeeeeeeeeeee..",
"..eeeeeeeeeeeeeee..",
"..................."};
