/* XPM */
static char * closeA_xpm[] = {
"19 38 96 2",
"  	c None",
". 	c #DDDBD9",
"+ 	c #D2D0CE",
"@ 	c #9D9C9A",
"# 	c #D4D2D0",
"$ 	c #D3D1CF",
"% 	c #9E9D9C",
"& 	c #929291",
"* 	c #969593",
"= 	c #D5D3D1",
"- 	c #949392",
"; 	c #939292",
"> 	c #E8E7E6",
", 	c #AAAAAA",
"' 	c #9A9A9A",
") 	c #9D9B9A",
"! 	c #999897",
"~ 	c #9B9B9A",
"{ 	c #ACACAB",
"] 	c #E9E8E7",
"^ 	c #E0DEDC",
"/ 	c #ECECEB",
"( 	c #AFAFAF",
"_ 	c #A09F9F",
": 	c #A0A09F",
"< 	c #B4B4B4",
"[ 	c #EEEDED",
"} 	c #DAD8D6",
"| 	c #B5B4B4",
"1 	c #A8A8A7",
"2 	c #B0B0AF",
"3 	c #D8D6D4",
"4 	c #D6D4D2",
"5 	c #A8A6A5",
"6 	c #AAAAA9",
"7 	c #B9B9B9",
"8 	c #ABAAAA",
"9 	c #A7A6A5",
"0 	c #B3B2B0",
"a 	c #B0B0B0",
"b 	c #BDBDBD",
"c 	c #EDECEC",
"d 	c #BCBCBC",
"e 	c #B1B1B0",
"f 	c #B3B2B1",
"g 	c #E9E8E8",
"h 	c #C5C5C5",
"i 	c #DFDEDC",
"j 	c #EDEDEC",
"k 	c #E0DFDD",
"l 	c #F3F2F2",
"m 	c #E0DEDD",
"n 	c #DAD7D5",
"o 	c #CECCCA",
"p 	c #979694",
"q 	c #D0CECC",
"r 	c #CFCDCB",
"s 	c #989796",
"t 	c #8B8B8A",
"u 	c #8F8E8C",
"v 	c #D1CFCD",
"w 	c #8D8C8B",
"x 	c #8C8B8B",
"y 	c #E5E4E3",
"z 	c #A4A4A4",
"A 	c #949494",
"B 	c #979594",
"C 	c #939290",
"D 	c #959594",
"E 	c #A6A6A5",
"F 	c #E7E5E4",
"G 	c #EAEAE9",
"H 	c #A9A9A9",
"I 	c #9A9999",
"J 	c #9A9A99",
"K 	c #AEAEAE",
"L 	c #ECEBEB",
"M 	c #AFAEAE",
"N 	c #A2A2A1",
"O 	c #A2A09F",
"P 	c #A4A4A3",
"Q 	c #A5A4A4",
"R 	c #A1A09F",
"S 	c #ADACAA",
"T 	c #B8B8B8",
"U 	c #EBEAEA",
"V 	c #B7B7B7",
"W 	c #ABABAA",
"X 	c #ADACAB",
"Y 	c #E7E5E5",
"Z 	c #C0C0C0",
"` 	c #DCDBD9",
" .	c #EBEBEA",
"..	c #DDDCDA",
"+.	c #F1F0F0",
"@.	c #DDDBDA",
". . . . . . . . . . . . . . . . . . . ",
". . . . . . . . . . . . . . . . . . . ",
". . . . . . . . . . . . . . . . . . . ",
". . . . . . . . . . . . . . . . . . . ",
". . . . . . . . . . . . . . . . . . . ",
". . . . . . . . . . . . . . . . . . . ",
". . . . . + @ # . . $ @ + . . . . . . ",
". . . . . % & * = $ - ; % . . . . . . ",
". . . . . > , ' ) ! ~ { ] . . . . . . ",
". . . . . ^ / ( _ : < [ ^ . . . . . . ",
". . . . . . } | 1 1 2 3 . . . . . . . ",
". . . . . 4 5 6 7 7 8 9 = . . . . . . ",
". . . . . 0 a b [ c d e f . . . . . . ",
". . . . . g h c i ^ j h g . . . . . . ",
". . . . . k l m . . m l k . . . . . . ",
". . . . . . . . . . . . . . . . . . . ",
". . . . . . . . . . . . . . . . . . . ",
". . . . . . . . . . . . . . . . . . . ",
". . . . . . . . . . . . . . . . . . . ",
". . . . . . . . . . . . . . . . . . . ",
". . . . . . . . . . . . . . . . . . . ",
". . n n n n n n n n n n n n n n n . . ",
". . n n n n n n n n n n n n n n n . . ",
". . n n n n n n n n n n n n n n n . . ",
". . n n n o p q n n r p o n n n n . . ",
". . n n n s t u v r w x s n n n n . . ",
". . n n n y z A B C D E F n n n n . . ",
". . n n n . G H I J K L . n n n n . . ",
". . n n n n 4 M N N 6 # n n n n n . . ",
". . n n n + O P < < Q R v n n n n . . ",
". . n n n S , T L U V W X n n n n . . ",
". . n n n Y Z U ` .  .Z Y n n n n . . ",
". . n n n ..+.@.n n @.+...n n n n . . ",
". . n n n n n n n n n n n n n n n . . ",
". . n n n n n n n n n n n n n n n . . ",
". . n n n n n n n n n n n n n n n . . ",
". . n n n n n n n n n n n n n n n . . ",
". . . . . . . . . . . . . . . . . . . "};
