/* XPM */
static char * closeO_xpm[] = {
"19 38 99 2",
"  	c None",
". 	c #DDDBD9",
"+ 	c #CDCBC9",
"@ 	c #7E7D7C",
"# 	c #D0CECC",
"$ 	c #CECCCA",
"% 	c #7D7C7B",
"& 	c #646363",
"* 	c #727170",
"= 	c #D1CFCD",
"- 	c #6F6E6E",
"; 	c #7F7E7D",
"> 	c #E2E1E1",
", 	c #838383",
"' 	c #6F6F6F",
") 	c #7B7B7A",
"! 	c #787776",
"~ 	c #878786",
"{ 	c #E3E2E1",
"] 	c #E0DEDC",
"^ 	c #E6E6E5",
"/ 	c #8E8E8E",
"( 	c #7A7979",
"_ 	c #7B7A7A",
": 	c #939392",
"< 	c #E9E8E8",
"[ 	c #DFDEDC",
"} 	c #D7D5D4",
"| 	c #999999",
"1 	c #868686",
"2 	c #959595",
"3 	c #D5D3D1",
"4 	c #D3D1CF",
"5 	c #939291",
"6 	c #8D8C8C",
"7 	c #A0A0A0",
"8 	c #9E9E9E",
"9 	c #8D8D8D",
"0 	c #929291",
"a 	c #A3A2A1",
"b 	c #989797",
"c 	c #A6A6A6",
"d 	c #EAEAE9",
"e 	c #E9E9E8",
"f 	c #989898",
"g 	c #A4A3A2",
"h 	c #E6E5E4",
"i 	c #B2B2B2",
"j 	c #EAE9E9",
"k 	c #DFDDDC",
"l 	c #E0DEDD",
"m 	c #F2F1F0",
"n 	c #CCD1D4",
"o 	c #769FBD",
"p 	c #CFD2D4",
"q 	c #CCD1D5",
"r 	c #759EBD",
"s 	c #759EBF",
"t 	c #5189B5",
"u 	c #6796BB",
"v 	c #D0D4D6",
"w 	c #CDD1D5",
"x 	c #6595B9",
"y 	c #759FBF",
"z 	c #E0E5E9",
"A 	c #719FC3",
"B 	c #5C92BC",
"C 	c #729FC1",
"D 	c #6E9CBF",
"E 	c #75A2C5",
"F 	c #E1E5EA",
"G 	c #E4EAED",
"H 	c #7CA8CA",
"I 	c #669BC3",
"J 	c #81ACCD",
"K 	c #E7ECEE",
"L 	c #D6D8DB",
"M 	c #88B1D2",
"N 	c #70A3CB",
"O 	c #84AED0",
"P 	c #D3D7DA",
"Q 	c #D1D5D8",
"R 	c #8AB3D3",
"S 	c #7AACD2",
"T 	c #8DB8D8",
"U 	c #8CB7D8",
"V 	c #88B2D2",
"W 	c #D1D6D8",
"X 	c #9BBFDA",
"Y 	c #84B4D9",
"Z 	c #94BCDC",
"` 	c #E8ECEF",
" .	c #E7EBEF",
"..	c #93BCDC",
"+.	c #E3E9EC",
"@.	c #A3C6E3",
"#.	c #E6ECF1",
"$.	c #E7ECF1",
"%.	c #A2C7E3",
". . . . . . . . . . . . . . . . . . . ",
". . . . . . . . . . . . . . . . . . . ",
". . . . . . . . . . . . . . . . . . . ",
". . . . . . . . . . . . . . . . . . . ",
". . . . . . . . . . . . . . . . . . . ",
". . . . . . . . . . . . . . . . . . . ",
". . . . . + @ # . . $ % + . . . . . . ",
". . . . . @ & * = $ - & ; . . . . . . ",
". . . . . > , ' ) ! ' ~ { . . . . . . ",
". . . . . ] ^ / ( _ : < [ . . . . . . ",
". . . . . . } | 1 1 2 3 . . . . . . . ",
". . . . . 4 5 6 7 8 9 0 4 . . . . . . ",
". . . . . a b c d e c f g . . . . . . ",
". . . . . h i j k ] < i h . . . . . . ",
". . . . . l m ] . . ] m l . . . . . . ",
". . . . . . . . . . . . . . . . . . . ",
". . . . . . . . . . . . . . . . . . . ",
". . . . . . . . . . . . . . . . . . . ",
". . . . . . . . . . . . . . . . . . . ",
". . . . . . . . . . . . . . . . . . . ",
". . . . . . . . . . . . . . . . . . . ",
". . . . . . . . . . . . . . . . . . . ",
". . . . . . . . . . . . . . . . . . . ",
". . . . . . . . . . . . . . . . . . . ",
". . . . . n o p . . q r n . . . . . . ",
". . . . . s t u v w x t y . . . . . . ",
". . . . . z A B C D B E F . . . . . . ",
". . . . . ] G H I I J K [ . . . . . . ",
". . . . . . L M N N O P . . . . . . . ",
". . . . . Q R S T U S V W . . . . . . ",
". . . . . X Y Z `  ...Y X . . . . . . ",
". . . . . +.@.#.k ] $.%.+.. . . . . . ",
". . . . . l m ] . . ] m l . . . . . . ",
". . . . . . . . . . . . . . . . . . . ",
". . . . . . . . . . . . . . . . . . . ",
". . . . . . . . . . . . . . . . . . . ",
". . . . . . . . . . . . . . . . . . . ",
". . . . . . . . . . . . . . . . . . . "};
