/* XPM */
static char * dframeITL_xpm[] = {
"5 22 3 1",
" 	c None",
".	c #EAEAEA",
"+	c #DDDBD9",
".....",
".++++",
".++++",
".++++",
".++++",
".++++",
".++++",
".++++",
".++++",
".++++",
".++++",
".++++",
".++++",
".++++",
".++++",
".++++",
".++++",
".++++",
".++++",
".++++",
".++++",
".++++"};
