/* XPM */
static char * maximizeI_xpm[] = {
"19 38 41 1",
" 	c None",
".	c #DDDBD9",
"+	c #DBD9D7",
"@	c #B0AFAD",
"#	c #B1B0AE",
"$	c #DCDAD8",
"%	c #C0BFBE",
"&	c #C1C0BF",
"*	c #C3C2C1",
"=	c #C4C3C2",
"-	c #B8B7B5",
";	c #B9B7B6",
">	c #C6C5C4",
",	c #CAC9C8",
"'	c #EEEDEC",
")	c #CDCCCB",
"!	c #CECDCD",
"~	c #D0CFCE",
"{	c #D1D0CF",
"]	c #D2D1D0",
"^	c #D2D2D1",
"/	c #EDECEB",
"(	c #DAD7D5",
"_	c #D7D5D3",
":	c #AAA9A7",
"<	c #ABAAA8",
"[	c #D9D6D4",
"}	c #BBBAB9",
"|	c #BCBBBA",
"1	c #BEBDBC",
"2	c #BFBEBD",
"3	c #B3B1AF",
"4	c #B4B1B0",
"5	c #C5C4C3",
"6	c #ECEBEA",
"7	c #C9C7C6",
"8	c #CAC9C9",
"9	c #CCCBCA",
"0	c #CECDCC",
"a	c #CECECD",
"b	c #EBEAE9",
"...................",
"...................",
"...................",
"...................",
"...................",
".......+@#.........",
".......$%&.........",
".......$*=.........",
".....--;>>---......",
".....,,,,,,,,......",
".....''')!'''......",
"........~{.........",
"........]^.........",
"........'/.........",
"...................",
"...................",
"...................",
"...................",
"...................",
"...................",
"...................",
"..(((((((((((((((..",
"..(((((((((((((((..",
"..(((((((((((((((..",
"..(((((_:<(((((((..",
"..((((([}|(((((((..",
"..((((([12(((((((..",
"..(((334&&333((((..",
"..(((55555555((((..",
"..(((66678666((((..",
"..((((((9)(((((((..",
"..((((((0a(((((((..",
"..((((((6b(((((((..",
"..(((((((((((((((..",
"..(((((((((((((((..",
"..(((((((((((((((..",
"..(((((((((((((((..",
"..................."};
