/* XPM */
static char * closeA_xpm[] = {
"19 38 41 1",
" 	c None",
".	c #DDDBD9",
"+	c #D9D7D5",
"@	c #848382",
"#	c #868583",
"$	c #DAD8D6",
"%	c #979797",
"&	c #999999",
"*	c #9E9E9E",
"=	c #A0A0A0",
"-	c #949392",
";	c #959492",
">	c #A4A4A4",
",	c #A5A4A4",
"'	c #ABABAB",
")	c #F8F7F7",
"!	c #B2B2B2",
"~	c #B4B4B4",
"{	c #B8B8B8",
"]	c #B9B9B8",
"^	c #BCBCBC",
"/	c #BDBDBD",
"(	c #F7F7F6",
"_	c #D6D4D3",
":	c #585756",
"<	c #5A5958",
"[	c #D8D6D4",
"}	c #676767",
"|	c #696969",
"1	c #727171",
"2	c #737373",
"3	c #717070",
"4	c #717170",
"5	c #7C7C7B",
"6	c #7C7B7B",
"7	c #868686",
"8	c #909090",
"9	c #9A9A9A",
"0	c #9B9B9A",
"a	c #9F9F9E",
"b	c #9F9F9F",
"...................",
"...................",
"...................",
"...................",
"...................",
".......+@#.........",
".......$%&.........",
".......$*=.........",
".....--;>,---......",
".....''''''''......",
".....)))!~)))......",
"........{].........",
"........^/.........",
"........)(.........",
"...................",
"...................",
"...................",
"...................",
"...................",
"...................",
"...................",
"...................",
"...................",
"...................",
"......._:<.........",
".......[}|.........",
".......+12.........",
".....33456333......",
".....77777777......",
".....)))88)))......",
"........90.........",
"........ab.........",
"........)(.........",
"...................",
"...................",
"...................",
"...................",
"..................."};
