/* XPM */
static char * minimizeA_xpm[] = {
"19 38 9 1",
" 	c None",
".	c #DDDBD9",
"+	c #949392",
"@	c #ABABAB",
"#	c #F8F7F7",
"$	c #DAD7D5",
"%	c #8D8C8B",
"&	c #A5A5A5",
"*	c #F7F6F6",
"...................",
"...................",
"...................",
"...................",
"...................",
"...................",
"...................",
"...................",
".....++++++++......",
".....@@@@@@@@......",
".....########......",
"...................",
"...................",
"...................",
"...................",
"...................",
"...................",
"...................",
"...................",
"...................",
"...................",
"..$$$$$$$$$$$$$$$..",
"..$$$$$$$$$$$$$$$..",
"..$$$$$$$$$$$$$$$..",
"..$$$$$$$$$$$$$$$..",
"..$$$$$$$$$$$$$$$..",
"..$$$$$$$$$$$$$$$..",
"..$$$%%%%%%%%$$$$..",
"..$$$&&&&&&&&$$$$..",
"..$$$********$$$$..",
"..$$$$$$$$$$$$$$$..",
"..$$$$$$$$$$$$$$$..",
"..$$$$$$$$$$$$$$$..",
"..$$$$$$$$$$$$$$$..",
"..$$$$$$$$$$$$$$$..",
"..$$$$$$$$$$$$$$$..",
"..$$$$$$$$$$$$$$$..",
"..................."};
