/* XPM */
static char * restoreO_xpm[] = {
"19 38 51 1",
" 	c None",
".	c #DDDBD9",
"+	c #686866",
"@	c #3A3A3A",
"#	c #6D6C6B",
"$	c #F0EFEF",
"%	c #878787",
"&	c #6D6D6D",
"*	c #909090",
"=	c #F2F2F1",
"-	c #E7E7E7",
";	c #808080",
">	c #777777",
",	c #8A8A8A",
"'	c #EFEEEE",
")	c #E3E1DF",
"!	c #D4D4D4",
"~	c #838383",
"{	c #E6E6E6",
"]	c #DFDDDC",
"^	c #EBE9E8",
"/	c #BCBCBC",
"(	c #D9D9D8",
"_	c #E4E2E1",
":	c #F4F3F2",
"<	c #EBE9E9",
"[	c #759DBD",
"}	c #70A3CB",
"|	c #6D9BBF",
"1	c #6E9FC4",
"2	c #6E9DC2",
"3	c #6F9FC6",
"4	c #E9E8E7",
"5	c #5189B5",
"6	c #70A0C7",
"7	c #70A1C8",
"8	c #709FC5",
"9	c #EBEAE9",
"0	c #E3E3E2",
"a	c #578EB9",
"b	c #70A1C7",
"c	c #E9E8E8",
"d	c #E0DEDC",
"e	c #D4D3D3",
"f	c #E3E2E2",
"g	c #DEDCDB",
"h	c #E5E3E2",
"i	c #96B0C3",
"j	c #699DC6",
"k	c #CAD3D9",
"l	c #ECEAE9",
"...................",
"...................",
"...................",
"...................",
"...................",
"...................",
"...................",
"...................",
".....+@@@@@@#......",
".....$%&&&&*=......",
"......-;>>,'.......",
"......)!~,{].......",
".......^/(_........",
"........:<.........",
"...................",
"...................",
"...................",
"...................",
"...................",
"...................",
"...................",
"...................",
"...................",
"...................",
"...................",
"...................",
"...................",
".....[}|123}}......",
".....456778}9......",
"......0ab}}c.......",
"......de5}fg.......",
".......hijk........",
"........lh.........",
"...................",
"...................",
"...................",
"...................",
"..................."};
