/* XPM */
static char * restoreA_xpm[] = {
"19 38 24 1",
" 	c None",
".	c #DDDBD9",
"+	c #A5A4A2",
"@	c #878685",
"#	c #A9A7A6",
"$	c #EBEAE9",
"%	c #B0AFAF",
"&	c #9E9E9E",
"*	c #B6B6B5",
"=	c #E9E8E8",
"-	c #ABAAAA",
";	c #A4A4A4",
">	c #B1B1B1",
",	c #E0DEDC",
"'	c #E0DFDF",
")	c #ABABAB",
"!	c #B0B0AF",
"~	c #E8E8E7",
"{	c #DEDCDB",
"]	c #E5E3E2",
"^	c #D2D2D2",
"/	c #E1E1E0",
"(	c #E1DFDD",
"_	c #ECEAE9",
"...................",
"...................",
"...................",
"...................",
"...................",
"...................",
"...................",
"...................",
".....+@@@@@@#......",
".....$%&&&&*$......",
"......=-;;>$.......",
"......,')!~{.......",
".......]^/(........",
"........_].........",
"...................",
"...................",
"...................",
"...................",
"...................",
"...................",
"...................",
"...................",
"...................",
"...................",
"...................",
"...................",
"...................",
".....+@@@@@@#......",
".....$%&&&&*$......",
"......=-;;>$.......",
"......,')!~{.......",
".......]^/(........",
"........_].........",
"...................",
"...................",
"...................",
"...................",
"..................."};
