/* XPM */
static char * folder_xpm[] = {
"16 16 67 1",
" 	c None",
".	c #8C8E89",
"+	c #888A85",
"@	c #8A8C86",
"#	c #8B8D88",
"$	c #8A8B88",
"%	c #F6F6F5",
"&	c #F8F8F7",
"*	c #F2F2F1",
"=	c #CACAC8",
"-	c #8E8F8D",
";	c #898B86",
">	c #8E908B",
",	c #F7F7F6",
"'	c #EEEEEC",
")	c #F1F1EF",
"!	c #F5F5F3",
"~	c #F5F5F4",
"{	c #3364A3",
"]	c #3B68A2",
"^	c #4672AB",
"/	c #4572AA",
"(	c #3161A0",
"_	c #8CAACB",
":	c #9AB5D4",
"<	c #A1BAD5",
"[	c #A8BFD7",
"}	c #AEC3DA",
"|	c #B6C9DD",
"1	c #BDCEE1",
"2	c #BED0E3",
"3	c #B7CBE0",
"4	c #B2C7DF",
"5	c #ACC4DD",
"6	c #A5BFDB",
"7	c #A0BBDA",
"8	c #93B1D1",
"9	c #2F5E9D",
"0	c #769BC6",
"a	c #7FA3CC",
"b	c #7EA2CC",
"c	c #2D5C9A",
"d	c #6F96C3",
"e	c #779CC8",
"f	c #779CC7",
"g	c #2B5997",
"h	c #6990C1",
"i	c #7096C4",
"j	c #7096C3",
"k	c #6990C0",
"l	c #295694",
"m	c #618ABD",
"n	c #6890BF",
"o	c #688FBF",
"p	c #275391",
"q	c #5984B8",
"r	c #6189BB",
"s	c #6089BA",
"t	c #25518E",
"u	c #517DB3",
"v	c #5983B6",
"w	c #234E8B",
"x	c #4976AE",
"y	c #517CB1",
"z	c #214B88",
"A	c #264F8B",
"B	c #2C538D",
"                ",
"                ",
" .++++@#        ",
" $%&&&*=-$$$$$; ",
" >,''')!,,,,,~> ",
"{]^//////////^]{",
"(_:<[}|12345678(",
"90abbbbbbbbbba09",
"cdeffffffffffedc",
"ghijjjjjjjjjjikg",
"lmnoooooooooonml",
"pqrssssssssssrqp",
"tuvvvvvvvvvvvvut",
"wxyyyyyyyyyyyyxw",
"zABBBBBBBBBBBBAz",
"                "};
