/* XPM */
static char * start_icewm_dracula_xpm[] = {
"24 24 6 1",
" 	c None",
".	c #A783DC",
"+	c #A784DC",
"@	c #A783DD",
"#	c #A683DD",
"$	c #A782DC",
"                        ",
"                        ",
"  .......+    +.......  ",
"  .......+    +.......  ",
"  .......+    +.......  ",
"  .......+    +.......  ",
"  .......+    +.......  ",
"  .......+    +.......  ",
"  .......+    +.......  ",
"  @@@@@@@.    #@@@@@@@  ",
"                        ",
"                        ",
"                        ",
"                        ",
"  $$$$$$$@    .$$$$$$$  ",
"  .......+    +.......  ",
"  .......+    +.......  ",
"  .......+    +.......  ",
"  .......+    +.......  ",
"  .......+    +.......  ",
"  .......+    +.......  ",
"  .......+    +.......  ",
"                        ",
"                        "};
