/* XPM */
static char * start_dracula_logo_xpm[] = {
"85 32 139 2",
"  	c #383A59",
". 	c #44436E",
"+ 	c #585393",
"@ 	c #695FB0",
"# 	c #6D62B8",
"$ 	c #7165BE",
"% 	c #6C61B5",
"& 	c #6058A1",
"* 	c #4B487A",
"= 	c #7668C8",
"- 	c #7B6DD1",
"; 	c #776ACA",
"> 	c #6B60B3",
", 	c #5E569D",
"' 	c #514D86",
") 	c #3E3F63",
"! 	c #42426B",
"~ 	c #655CAA",
"{ 	c #8977EA",
"] 	c #9580FF",
"^ 	c #8776E6",
"/ 	c #534E89",
"( 	c #3F4067",
"_ 	c #534F8A",
": 	c #7366C2",
"< 	c #927EFA",
"[ 	c #937EFC",
"} 	c #7D6ED5",
"| 	c #625AA4",
"1 	c #45436F",
"2 	c #6F63BB",
"3 	c #947FFC",
"4 	c #947FFE",
"5 	c #675DAE",
"6 	c #3A3C5E",
"7 	c #454470",
"8 	c #7669C7",
"9 	c #4A4879",
"0 	c #393A5A",
"a 	c #3C3D61",
"b 	c #393B5A",
"c 	c #6159A3",
"d 	c #8F7BF5",
"e 	c #5C5599",
"f 	c #393B5B",
"g 	c #7568C6",
"h 	c #7A6CCF",
"i 	c #464571",
"j 	c #8473E1",
"k 	c #645BA8",
"l 	c #4E4B81",
"m 	c #414169",
"n 	c #7C6DD3",
"o 	c #6B60B4",
"p 	c #3B3D5F",
"q 	c #8B78ED",
"r 	c #927DF9",
"s 	c #645BA6",
"t 	c #393B5C",
"u 	c #8A78EB",
"v 	c #484675",
"w 	c #917CF8",
"x 	c #3D3E62",
"y 	c #504C83",
"z 	c #8D7AF1",
"A 	c #8A77EB",
"B 	c #635AA6",
"C 	c #806FD9",
"D 	c #7A6BCE",
"E 	c #907CF6",
"F 	c #917DF8",
"G 	c #7E6FD7",
"H 	c #5B5497",
"I 	c #927EFB",
"J 	c #4D4B7F",
"K 	c #8C79EE",
"L 	c #4C497D",
"M 	c #7165C0",
"N 	c #786ACB",
"O 	c #464472",
"P 	c #6A60B3",
"Q 	c #7F6FD7",
"R 	c #4C4A7E",
"S 	c #937EFA",
"T 	c #544F8B",
"U 	c #6E63B9",
"V 	c #3B3C5D",
"W 	c #6159A1",
"X 	c #575191",
"Y 	c #786BCC",
"Z 	c #55518E",
"` 	c #7C6DD2",
" .	c #55508D",
"..	c #7669C8",
"+.	c #6F64BD",
"@.	c #947FFD",
"#.	c #5B5599",
"$.	c #8D79F0",
"%.	c #8976E8",
"&.	c #3C3D60",
"*.	c #43426D",
"=.	c #8271DC",
"-.	c #8E7BF3",
";.	c #8272DE",
">.	c #665CAB",
",.	c #514E87",
"'.	c #5A5395",
").	c #8372DF",
"!.	c #8E7AF1",
"~.	c #575290",
"{.	c #8171DC",
"].	c #685EAF",
"^.	c #907CF7",
"/.	c #484574",
"(.	c #635AA5",
"_.	c #3F4065",
":.	c #56518F",
"<.	c #8B79EF",
"[.	c #6059A2",
"}.	c #585292",
"|.	c #484776",
"1.	c #917DF7",
"2.	c #7D6DD3",
"3.	c #6058A0",
"4.	c #524E88",
"5.	c #7266C1",
"6.	c #665DAC",
"7.	c #8E7AF3",
"8.	c #8775E6",
"9.	c #4B497B",
"0.	c #786ACC",
"a.	c #474674",
"b.	c #8171DB",
"c.	c #3D3E61",
"d.	c #7C6CD1",
"e.	c #695FB2",
"f.	c #8574E3",
"g.	c #6259A3",
"h.	c #494777",
"                                                                                                                                                                          ",
"                                                                                                                                                                          ",
"                                                                                                                                                                          ",
"                                                                                                                                      . + @ # $ % & *                     ",
"                        # = = - ; > , ' )                                                                                       ! ~ { ] ] ] ] ] ] ^ /                     ",
"                        ( _ : < ] ] ] ] [ } | 1                                                                             ( 2 3 ] ] ] ] ] ] 4 5 6                       ",
"                              7 } ] ] ] ] ] ] 4 8 9                           0 a                                       b c d ] ] ] ] ] ] ] 4 e                           ",
"                                f g ] ] ] ] ] ] ] ] h i                       ! j 6           k l                     m n ] ] ] ] ] ] ] ] ] o                             ",
"                                  p q ] ] ] ] ] ] ] ] r s t                     u n v   0 9 = w x                   y z ] ] ] ] ] ] ] ] ] A 6                             ",
"                                    B ] ] ] ] ] ] ] ] ] ] C m                   D ] ] E F ] ] G                   H I ] ] ] ] ] ] ] ] ] ] B                               ",
"                                    J ] ] ] ] ] ] ] ] ] ] ] K L                 M ] ] ] ] ] ] N                 5 ] ] ] ] ] ] ] ] ] ] ] ] O                               ",
"                                    i ] ] ] ] ] ] ] ] ] ] ] ] F '               P ] ] ] ] ] ] Q             b 2 ] ] ] ] ] ] ] ] ] ] ] ] ] t                               ",
"                                    R ] ] ] ] ] ] ] ] ] ] ] ] ] S T             U ] ] ] ] ] ] F p         V g ] ] ] ] ] ] ] ] ] ] ] ] ] ] )                               ",
"                                    W ] ] ] ] ] ] ] ] ] ] ] ] ] ] [ X           Y ] ] ] ] ] ] ] Z       a ` ] ] ] ] ] ] ] ] ] ] ] ] ] ] ]  .                              ",
"                                    D d ..+.- @.] ] ] ] ] ] ] ] ] ] @.#.      t $.] ] ] ] ] ] ] %.&.  *.=.] ] ] ] ] ] ] ] ] ] ] ] ] ] -.;.>.                              ",
"                                    ! V       ,.3 ] ] ] ] ] ] ] ] ] ] 4 >.0   '.] ] ] ] ] ] ] ] ] ).8 E ] ] ] ] ] ] ] ] ] ] ] ] ] !.~.f                                   ",
"                                                P ] ] ] ] ] ] ] ] ] ] ] ] {.].d ] ] ] ] ] ] ] ] ] ] ] ] ] ] ] ] ] ] ] ] ] ] ] ] ^./.                                      ",
"                                                7 ] ] ] ] ] ] ] ] ] ] ] ] ] ] ] ] ] ] ] ] ] ] ] ] ] ] ] ] ] ] ] ] ] ] ] ] ] ] ] (.                                        ",
"                                                &.] ] ] ] ] ] ] ] ] ] ] ] ] ] ] ] ] ] ] ] ] ] ] ] ] ] ] ] ] ] ] ] ] ] ] ] ] ] 4 _.                                        ",
"                                                :.] ] ] ] ] ] ] ] ] ] ] ] ] ] ] ] ] ] ] ] ] ] ] ] ] ] ] ] ] ] ] ] ] ] ] ] ] ] <.                                          ",
"                                                [.>.H }., @ ; $.] ] ] ] ] ] ] ] ] ] ] ] ] ] ] ] ] ] ] ] ] ] ] ] ] ] ] ] ] ] ] ^.b                                         ",
"                                                              0 |.c - @.] ] ] ] ] ] ] ] ] ] ] ] ] ] ] ] ] ] 1.2.# 3.~.4.Z , 5.F '                                         ",
"                                                                      ! 6.7.] ] ] ] ] ] ] ] ] ] ] ] ] 8.@ 9.t                 ! !                                         ",
"                                                                          a ].I ] ] ] ] ] ] ] ] 4 0.y                                                                     ",
"                                                                              a.j ] ] ] ] ] ] b.R                                                                         ",
"                                                                                c.d.] ] ] 4 e.f                                                                           ",
"                                                                                  &.f.] ] g.                                                                              ",
"                                                                                    9.] =                                                                                 ",
"                                                                                      C h.                                                                                ",
"                                                                                                                                                                          ",
"                                                                                                                                                                          ",
"                                                                                                                                                                          "};
