<?xml version="1.0" encoding="UTF-8" standalone="no"?>
<!-- Created with Inkscape (http://www.inkscape.org/) -->

<svg
   width="85"
   height="32"
   viewBox="0 0 22.489583 8.4666669"
   version="1.1"
   id="svg5"
   inkscape:export-filename="/home/salix/bitmap.png"
   inkscape:export-xdpi="96"
   inkscape:export-ydpi="96"
   inkscape:version="1.1.2 (0a00cf5339, 2022-02-04)"
   sodipodi:docname="start-dracula-logo.svg"
   xmlns:inkscape="http://www.inkscape.org/namespaces/inkscape"
   xmlns:sodipodi="http://sodipodi.sourceforge.net/DTD/sodipodi-0.dtd"
   xmlns="http://www.w3.org/2000/svg"
   xmlns:svg="http://www.w3.org/2000/svg">
  <sodipodi:namedview
     id="namedview7"
     pagecolor="#ffffff"
     bordercolor="#666666"
     borderopacity="1.0"
     inkscape:pageshadow="2"
     inkscape:pageopacity="0.0"
     inkscape:pagecheckerboard="0"
     inkscape:document-units="mm"
     showgrid="false"
     units="px"
     width="85px"
     inkscape:zoom="8"
     inkscape:cx="40.0625"
     inkscape:cy="13.5625"
     inkscape:window-width="1600"
     inkscape:window-height="840"
     inkscape:window-x="-1"
     inkscape:window-y="-1"
     inkscape:window-maximized="1"
     inkscape:current-layer="layer1"
     showguides="true"
     inkscape:guide-bbox="true"
     inkscape:snap-global="true" />
  <defs
     id="defs2" />
  <g
     inkscape:label="Layer 1"
     inkscape:groupmode="layer"
     id="layer1"
     style="display:inline">
    <rect
       style="fill:#383a59;fill-opacity:1;stroke:none;stroke-width:0.0529167;stroke-linecap:round;stroke-miterlimit:0"
       id="rect643"
       width="22.489584"
       height="8.4666662"
       x="0.0044213217"
       y="-0.014970535"
       ry="0" />
    <path
       d="m 19.682343,0.972817 c -0.90407,-0.1851503 -1.813504,-0.064609 -2.702862,0.358134 -1.014979,0.4824781 -1.867246,1.283083 -2.553534,1.9275989 -0.231815,0.2175727 -0.450553,0.423225 -0.652014,0.5943175 -0.09052,0.077087 -0.177817,0.135792 -0.259978,0.1748812 -0.192555,0.091503 -0.349889,0.074551 -0.480668,-0.051757 -0.35084,-0.3383402 -0.607405,-1.2985941 -0.242791,-1.9319706 0.02603,-0.045176 0.0097,-0.1026405 -0.03744,-0.1307385 -0.04599,-0.027274 -0.10872,-0.01701 -0.14058,0.02493 -0.106627,0.140724 -0.254774,0.2588055 -0.428494,0.3414208 -0.303287,0.1440855 -0.655808,0.1692968 -0.942836,0.067239 -0.233309,-0.083104 -0.408795,-0.2448637 -0.507309,-0.4679806 -0.02205,-0.049833 -0.08284,-0.074765 -0.135563,-0.055624 -0.05384,0.019462 -0.07916,0.07553 -0.05859,0.125748 0.16263,0.3964347 0.350316,1.8167244 -0.182655,2.3462847 -0.12303,0.1221817 -0.292432,0.067849 -0.292432,0.067849 C 9.7974357,4.2847787 9.3208567,3.8058284 9.2674007,3.7514954 8.7513707,3.2267875 8.0448247,2.5085214 7.0757917,1.9571191 5.9318807,1.3061326 4.6555216,1.0337029 3.2824579,1.1472714 c -0.053437,0.00441 -0.093994,0.04759 -0.09369,0.096831 3.837e-4,0.050904 0.041348,0.093321 0.095177,0.098908 0.3608296,0.037078 1.0755776,0.2551316 1.4654124,0.8367487 0.3078765,0.4591836 0.3311273,1.0365363 0.069131,1.7158435 -0.014378,0.03749 -0.00328,0.079371 0.028395,0.1067377 0.031651,0.027527 0.076824,0.034432 0.1152923,0.01782 0.7591511,-0.328002 1.1662451,-0.134586 1.3540101,0.1020353 0.582872,0.7347809 0.132339,1.1779909 0.132339,1.1779909 -0.03838,0.038194 -0.04218,0.082705 -0.01642,0.122328 0.02649,0.04064 0.07988,0.058376 0.126738,0.042129 0.713757,-0.2469108 2.346425,0.068785 3.4941053,0.6754216 0.788981,0.4172153 1.287063,0.9353891 1.402547,1.4592193 0.0099,0.045439 0.05125,0.07832 0.100507,0.080001 0.04806,0.00173 0.09209,-0.029749 0.103433,-0.072797 0.12915,-0.4867657 0.636469,-0.9621506 1.428725,-1.3387948 0.662609,-0.3149221 1.474016,-0.5384623 2.225894,-0.6132328 0.733846,-0.073008 1.318025,0.011947 1.563187,0.2268597 0.03712,0.032708 0.09491,0.036331 0.13536,0.00711 0.04052,-0.029081 0.05184,-0.081245 0.02693,-0.1241685 -0.15579,-0.2687799 -0.182768,-0.5993494 -0.0761,-0.9306599 0.116325,-0.3607117 0.377021,-0.6670111 0.697707,-0.8194189 0.210982,-0.1002668 0.434841,-0.130752 0.66516,-0.090684 0.03935,0.00689 0.08098,-0.00886 0.103658,-0.039775 0.02302,-0.031133 0.02428,-0.072635 0.0034,-0.1057635 -0.196943,-0.3129822 -0.23519,-0.7178574 -0.108,-1.1403403 0.179887,-0.5969558 0.652792,-1.1394461 1.233882,-1.4156906 0.04727,-0.022563 0.09569,-0.043243 0.143752,-0.061974 0.04169,-0.016088 0.0673,-0.057078 0.06271,-0.099423 -0.0047,-0.043211 -0.03823,-0.078428 -0.08341,-0.087707 z"
       id="path2-3"
       style="fill:#9580ff;fill-opacity:1;stroke-width:0.0736699" />
  </g>
</svg>
