/* XPM */
static char * taskbuttonactive_xpm[] = {
"1 27 3 1",
" 	c #18181D",
".	c #2F2F33",
"+	c #69548A",
" ",
".",
" ",
" ",
" ",
" ",
" ",
" ",
" ",
" ",
" ",
" ",
" ",
" ",
" ",
" ",
" ",
" ",
" ",
" ",
" ",
" ",
" ",
" ",
" ",
"+",
"+"};
