/* XPM */
static char * left_xpm[] = {
"11 17 3 1 1 1",
" 	c None",
".	c #A2ADBC",
"+	c #282A36",
"..         ",
".+.        ",
".++.       ",
".+++.      ",
".++++.     ",
".+++++.    ",
".++++++.   ",
".+++++++.  ",
".++++++++. ",
".+++++....+",
".++.++.++++",
".+.+.++.   ",
"..++.++.+  ",
" ++  .++.  ",
"     .++.+ ",
"      ..++ ",
"       ++  "};
