/* XPM */
static char * move_xpm[] = {
"23 23 3 1 10 10",
" 	c None",
".	c #A2ADBC",
"+	c #282A36",
"          ..           ",
"          ..+          ",
"         .++.          ",
"         .++.+         ",
"        .++++.         ",
"        .++++.+        ",
"       .++++++.        ",
"      ....++....       ",
"    ..+.+.++.+.+..     ",
"  ..+++...++...+++..   ",
"..++++++++++++++++++.. ",
"..++++++++++++++++++..+",
" +..+++...++...+++..+++",
"   +..+.+.++.+.+..+++  ",
"     +....++....+++    ",
"       .++++++.++      ",
"        .++++.++       ",
"        .++++.+        ",
"         .++.++        ",
"         .++.+         ",
"          ..++         ",
"          ..+          ",
"           ++          "};
