/* XPM */
static char * right_xpm[] = {
"16 16 3 1 13 1",
" 	c None",
".	c #A2ADBC",
"+	c #282A36",
"            ... ",
"          ..++.+",
"        ..++++.+",
"      ..+++++.++",
"    ..+++++++.+ ",
"  ..++++++++.++ ",
" ..+++++++++.+  ",
"  +..++++++.++  ",
"    .++++++.+   ",
"   .++++++.++   ",
"  .+++..++.+    ",
" .+++.+.+.++    ",
".+++.++ ..+     ",
".++.++  .++     ",
" ..++    +      ",
"  ++            "};
