/* XPM */
static char * sizeTL_xpm[] = {
"20 20 3 1 0 0",
" 	c None",
".	c #A2ADBC",
"+	c #282A36",
"................... ",
".+++++++++++++++++.+",
".+...+++++++++++++.+",
".+.++..............+",
".+.++++..+++++++++++",
".++.+++++..         ",
".++.+++++++..       ",
".++..++++++++.      ",
".++..+++++++..+     ",
".++.+.+++++.+++     ",
".++.+.++++++.       ",
".++.+ .++.+++.      ",
".++.+ .+.+.+++.     ",
".++.+  ..+ .++.+    ",
".++.+   ++  ..++    ",
".++.+        ++     ",
".++.+               ",
".++.+               ",
"....+               ",
" ++++               "};
