/* XPM */
static char * sizeBR_xpm[] = {
"20 20 3 1 19 19",
" 	c None",
".	c #A2ADBC",
"+	c #282A36",
"               .... ",
"               .++.+",
"               .++.+",
"               .++.+",
"     ..        .++.+",
"    .++.  ..   .++.+",
"    .+++. .+.  .++.+",
"     .+++.++.+ .++.+",
"      .++++++. .++.+",
"       .+++++.+.++.+",
"     ..+++++++..++.+",
"     .++++++++.+++.+",
"      ..+++++++.++.+",
"       +..+++++.++.+",
"         +..++++.+.+",
"...........+..++.+.+",
".+++++++++++++...+.+",
".+++++++++++++++++.+",
"...................+",
" +++++++++++++++++++"};
