/* XPM */
static char * sizeTR_xpm[] = {
"20 20 3 1 19 0",
" 	c None",
".	c #A2ADBC",
"+	c #282A36",
"................... ",
".+++++++++++++++++.+",
".+++++++++++++...+.+",
"..............++.+.+",
" +++++++++..++++.+.+",
"        ..+++++.++.+",
"      ..+++++++.++.+",
"     .++++++++.+++.+",
"     ..+++++++.+++.+",
"      +.+++++.++++.+",
"      .++++++.+.++.+",
"     .+++.++.++.++.+",
"    .+++.+.+.+ .++.+",
"    .++.++..++ .++.+",
"     ..++  ++  .++.+",
"      ++       .++.+",
"               .++.+",
"               .++.+",
"               ....+",
"                ++++"};
