/* XPM */
static char * closeO_xpm[] = {
"24 54 40 1",
" 	c #2D2E37",
".	c #1E1F29",
"+	c #2D1F2A",
"@	c #822430",
"#	c #CA343D",
"$	c #E43B43",
"%	c #E43C43",
"&	c #C9343D",
"*	c #812430",
"=	c #5C222D",
"-	c #E33B42",
";	c #FC5253",
">	c #FF5555",
",	c #E23C43",
"'	c #5B222C",
")	c #F0454A",
"!	c #EF4449",
"~	c #D94748",
"{	c #C13F40",
"]	c #DA4849",
"^	c #E23B42",
"/	c #2E1F2A",
"(	c #28080B",
"_	c #B1393A",
":	c #B2393A",
"<	c #802530",
"[	c #B53B3C",
"}	c #AF3839",
"|	c #B43A3B",
"1	c #C8343D",
"2	c #E43C44",
"3	c #E33B43",
"4	c #27080B",
"5	c #7F2531",
"6	c #E13B42",
"7	c #2D202A",
"8	c #EF444A",
"9	c #59222D",
"0	c #C8333D",
"a	c #E33C43",
"                        ",
"........................",
"........................",
"........................",
"........................",
"........................",
"........+@#$%&*+........",
".......=-;>>>>;,'.......",
"......=)>>>>>>>>!'......",
".....+->~{>>>>{]>^/.....",
".....@;>{(_>>:({>;<.....",
".....#>>>[(}|(}>>>1.....",
".....2>>>>:((:>>>>3.....",
".....->>>>:44:>>>>,.....",
".....#>>>|(}|(}>>>1.....",
".....*;>{4_>>:({>;5.....",
".....+,>]{>>>>{]>67.....",
"......'!>>>>>>>>89......",
".......',;>>>>;69.......",
"......../<0aa057........",
"........................",
"........................",
"........................",
"........................",
"........................",
"........................",
"........................",
"                        ",
"........................",
"........................",
"........................",
"........................",
"........................",
"........+@#$%&*+........",
".......=-;>>>>;,'.......",
"......=)>>>>>>>>!'......",
".....+->~{>>>>{]>^/.....",
".....@;>{(_>>:({>;<.....",
".....#>>>[(}|(}>>>1.....",
".....2>>>>:((:>>>>3.....",
".....->>>>:44:>>>>,.....",
".....#>>>|(}|(}>>>1.....",
".....*;>{4_>>:({>;5.....",
".....+,>]{>>>>{]>67.....",
"......'!>>>>>>>>89......",
".......',;>>>>;69.......",
"......../<0aa057........",
"........................",
"........................",
"........................",
"........................",
"........................",
"........................",
"........................"};
