/* XPM */
static char * closeA_xpm[] = {
"24 54 60 1",
" 	c #2D2E37",
".	c #1E1F29",
"+	c #31232C",
"@	c #973B40",
"#	c #E24E4F",
"$	c #FA5454",
"%	c #E14E4F",
"&	c #963B40",
"*	c #6A3137",
"=	c #F95353",
"-	c #FF5555",
";	c #F95454",
">	c #693137",
",	c #F85353",
"'	c #31232D",
")	c #943B3F",
"!	c #E04E50",
"~	c #F85454",
"{	c #933B40",
"]	c #F75353",
"^	c #30242D",
"/	c #673037",
"(	c #E04D4F",
"_	c #2D1F2A",
":	c #822430",
"<	c #CA343D",
"[	c #E43B43",
"}	c #E43C43",
"|	c #C9343D",
"1	c #812430",
"2	c #5C222D",
"3	c #E33B42",
"4	c #FC5253",
"5	c #E23C43",
"6	c #5B222C",
"7	c #F0454A",
"8	c #EF4449",
"9	c #D94748",
"0	c #C13F40",
"a	c #DA4849",
"b	c #E23B42",
"c	c #2E1F2A",
"d	c #28080B",
"e	c #B1393A",
"f	c #B2393A",
"g	c #802530",
"h	c #B53B3C",
"i	c #AF3839",
"j	c #B43A3B",
"k	c #C8343D",
"l	c #E43C44",
"m	c #E33B43",
"n	c #27080B",
"o	c #7F2531",
"p	c #E13B42",
"q	c #2D202A",
"r	c #EF444A",
"s	c #59222D",
"t	c #C8333D",
"u	c #E33C43",
"                        ",
"........................",
"........................",
"........................",
"........................",
"........................",
"........+@#$$%&+........",
".......*=------;>.......",
"......*---------->......",
".....+=----------,'.....",
".....@------------).....",
".....#------------!.....",
".....;------------;.....",
".....=------------~.....",
".....%------------!.....",
".....&------------{.....",
".....+;----------]^.....",
"......>----------/......",
".......>~------]/.......",
"........')(;;({^........",
"........................",
"........................",
"........................",
"........................",
"........................",
"........................",
"........................",
"                        ",
"........................",
"........................",
"........................",
"........................",
"........................",
"........_:<[}|1_........",
".......234----456.......",
"......27--------86......",
"....._3-90----0a-bc.....",
".....:4-0de--fd0-4g.....",
".....<---hdijdi---k.....",
".....l----fddf----m.....",
".....3----fnnf----5.....",
".....<---jdijdi---k.....",
".....14-0ne--fd0-4o.....",
"....._5-a0----0a-pq.....",
"......68--------rs......",
".......654----4ps.......",
"........cgtuutoq........",
"........................",
"........................",
"........................",
"........................",
"........................",
"........................",
"........................"};
