/* XPM */
static char * maximizeO_xpm[] = {
"24 54 46 1",
" 	c #2D2E37",
".	c #1E1F29",
"+	c #1D2D28",
"@	c #1B7827",
"#	c #26BD3C",
"$	c #2FD748",
"%	c #2ED748",
"&	c #26BC3C",
"*	c #1B7726",
"=	c #1A5625",
"-	c #2FD647",
";	c #4CF675",
">	c #50FA7B",
",	c #2ED648",
"'	c #3AE65A",
")	c #3AE55A",
"!	c #34AF50",
"~	c #227B32",
"{	c #237E34",
"]	c #44DC69",
"^	c #2ED547",
"/	c #1E2C28",
"(	c #4DF176",
"_	c #165B20",
":	c #032702",
"<	c #248136",
"[	c #1B7725",
"}	c #26BD3B",
"|	c #34AD4F",
"1	c #4CEF75",
"2	c #237D33",
"3	c #27BC3B",
"4	c #2FD749",
"5	c #14571E",
"6	c #4DF276",
"7	c #175E21",
"8	c #2ED548",
"9	c #15581E",
"0	c #35B051",
"a	c #4BF674",
"b	c #34AC4F",
"c	c #2ED446",
"d	c #1D2C28",
"e	c #3AE559",
"f	c #1A5426",
"g	c #27BC3C",
"                        ",
"........................",
"........................",
"........................",
"........................",
"........................",
"........+@#$%&*+........",
".......=-;>>>>;,=.......",
"......='>>>>>>>>)=......",
".....+->>>!~~~{]>^/.....",
".....@;>>>(_:::<>;[.....",
".....}>>|1>(_::2>>3.....",
".....4>>251>67:2>>-.....",
".....->>2:51>672>>8.....",
".....}>>2::91>(0>>3.....",
".....*;><:::91>>>a*.....",
".....+,>]{~~~b>>>cd.....",
"......=)>>>>>>>>ef......",
".......=8;>>>>acf.......",
"......../[g,,g*d........",
"........................",
"........................",
"........................",
"........................",
"........................",
"........................",
"........................",
"                        ",
"........................",
"........................",
"........................",
"........................",
"........................",
"........+@#$%&*+........",
".......=-;>>>>;,=.......",
"......='>>>>>>>>)=......",
".....+->>>!~~~{]>^/.....",
".....@;>>>(_:::<>;[.....",
".....}>>|1>(_::2>>3.....",
".....4>>251>67:2>>-.....",
".....->>2:51>672>>8.....",
".....}>>2::91>(0>>3.....",
".....*;><:::91>>>a*.....",
".....+,>]{~~~b>>>cd.....",
"......=)>>>>>>>>ef......",
".......=8;>>>>acf.......",
"......../[g,,g*d........",
"........................",
"........................",
"........................",
"........................",
"........................",
"........................",
"........................"};
