/* XPM */
static char * maximizeA_xpm[] = {
"24 54 67 1",
" 	c #2D2E37",
".	c #1E1F29",
"+	c #223230",
"@	c #389455",
"#	c #49DD70",
"$	c #50F579",
"%	c #4FF57A",
"&	c #49DC70",
"*	c #389355",
"=	c #2F6944",
"-	c #4FF478",
";	c #50FA7B",
">	c #4EF479",
",	c #2E6844",
"'	c #4FF378",
")	c #233130",
"!	c #399354",
"~	c #4ADD70",
"{	c #4EF579",
"]	c #4FF479",
"^	c #4EF379",
"/	c #389254",
"(	c #223130",
"_	c #2E6644",
":	c #1D2D28",
"<	c #1B7827",
"[	c #26BD3C",
"}	c #2FD748",
"|	c #2ED748",
"1	c #26BC3C",
"2	c #1B7726",
"3	c #1A5625",
"4	c #2FD647",
"5	c #4CF675",
"6	c #2ED648",
"7	c #3AE65A",
"8	c #3AE55A",
"9	c #34AF50",
"0	c #227B32",
"a	c #237E34",
"b	c #44DC69",
"c	c #2ED547",
"d	c #1E2C28",
"e	c #4DF176",
"f	c #165B20",
"g	c #032702",
"h	c #248136",
"i	c #1B7725",
"j	c #26BD3B",
"k	c #34AD4F",
"l	c #4CEF75",
"m	c #237D33",
"n	c #27BC3B",
"o	c #2FD749",
"p	c #14571E",
"q	c #4DF276",
"r	c #175E21",
"s	c #2ED548",
"t	c #15581E",
"u	c #35B051",
"v	c #4BF674",
"w	c #34AC4F",
"x	c #2ED446",
"y	c #1D2C28",
"z	c #3AE559",
"A	c #1A5426",
"B	c #27BC3C",
"                        ",
"........................",
"........................",
"........................",
"........................",
"........................",
"........+@#$%&*+........",
".......=-;;;;;;>,.......",
"......=;;;;;;;;;;,......",
".....+-;;;;;;;;;;').....",
".....@;;;;;;;;;;;;!.....",
".....#;;;;;;;;;;;;~.....",
".....{;;;;;;;;;;;;].....",
".....-;;;;;;;;;;;;^.....",
".....#;;;;;;;;;;;;~.....",
".....*;;;;;;;;;;;;/.....",
".....+>;;;;;;;;;;'(.....",
"......,;;;;;;;;;;_......",
".......,^;;;;;;'_.......",
"........)!&{{&/(........",
"........................",
"........................",
"........................",
"........................",
"........................",
"........................",
"........................",
"                        ",
"........................",
"........................",
"........................",
"........................",
"........................",
"........:<[}|12:........",
".......345;;;;563.......",
"......37;;;;;;;;83......",
".....:4;;;9000ab;cd.....",
".....<5;;;efgggh;5i.....",
".....j;;kl;efggm;;n.....",
".....o;;mpl;qrgm;;4.....",
".....4;;mgpl;qrm;;s.....",
".....j;;mggtl;eu;;n.....",
".....25;hgggtl;;;v2.....",
".....:6;ba000w;;;xy.....",
"......38;;;;;;;;zA......",
".......3s5;;;;vxA.......",
"........diB66B2y........",
"........................",
"........................",
"........................",
"........................",
"........................",
"........................",
"........................"};
