/* XPM */
static char * minimizeO_xpm[] = {
"24 54 36 1",
" 	c #2D2E37",
".	c #1E1F29",
"+	c #2E2A26",
"@	c #846720",
"#	c #C9A939",
"$	c #E1C448",
"%	c #E0C447",
"&	c #C8A939",
"*	c #836620",
"=	c #5E4B21",
"-	c #E0C448",
";	c #F0F484",
">	c #F1FA8C",
",	c #DFC447",
"'	c #5D4A21",
")	c #E8D960",
"!	c #E8D95F",
"~	c #DFC346",
"{	c #2E2927",
"]	c #826620",
"^	c #C9A938",
"/	c #C7A838",
"(	c #E0C549",
"_	c #B2B15F",
":	c #80773C",
"<	c #B3B25F",
"[	c #DFC448",
"}	c #DFC347",
"|	c #C9A838",
"1	c #EFF383",
"2	c #816521",
"3	c #DEC246",
"4	c #2D2927",
"5	c #E8D85E",
"6	c #5B4922",
"7	c #C7A839",
"                        ",
"........................",
"........................",
"........................",
"........................",
"........................",
"........+@#$%&*+........",
".......=-;>>>>;,'.......",
"......=)>>>>>>>>!'......",
".....+->>>>>>>>>>~{.....",
".....@;>>>>>>>>>>;].....",
".....^>>>>>>>>>>>>/.....",
".....(>_::::::::<>[.....",
".....-><::::::::<>}.....",
".....|>>>>>>>>>>>>/.....",
".....*;>>>>>>>>>>12.....",
".....+,>>>>>>>>>>34.....",
"......'!>>>>>>>>56......",
".......'};>>>>136.......",
"........{]7%%724........",
"........................",
"........................",
"........................",
"........................",
"........................",
"........................",
"........................",
"                        ",
"........................",
"........................",
"........................",
"........................",
"........................",
"........+@#$%&*+........",
".......=-;>>>>;,'.......",
"......=)>>>>>>>>!'......",
".....+->>>>>>>>>>~{.....",
".....@;>>>>>>>>>>;].....",
".....^>>>>>>>>>>>>/.....",
".....(>_::::::::<>[.....",
".....-><::::::::<>}.....",
".....|>>>>>>>>>>>>/.....",
".....*;>>>>>>>>>>12.....",
".....+,>>>>>>>>>>34.....",
"......'!>>>>>>>>56......",
".......'};>>>>136.......",
"........{]7%%724........",
"........................",
"........................",
"........................",
"........................",
"........................",
"........................",
"........................"};
