/* XPM */
static char * restoreI_xpm[] = {
"24 54 17 1",
" 	c #2D2E37",
".	c #1E1F29",
"+	c #20212C",
"@	c #22242F",
"#	c #23252F",
"$	c #21222C",
"%	c #262833",
"&	c #282A36",
"*	c #262733",
"=	c #20222C",
"-	c #22232E",
";	c #272936",
">	c #262734",
",	c #20212B",
"'	c #22242E",
")	c #232430",
"!	c #262834",
"                        ",
"........................",
"........................",
"........................",
"........................",
"..........+@#@+.........",
"........$%&&&&&*=.......",
".......-;&&&&&&&&-......",
"......$;&&&&&&&&&&=.....",
"......%&&&&&&&&&&&>.....",
".....+&&&&&&&&&&&&&,....",
".....@&&&&&&&&&&&&&'....",
".....)&&&&&&&&&&&&&)....",
".....@&&&&&&&&&&&&&-....",
".....+&&&&&&&&&&&&&,....",
"......*&&&&&&&&&&&!.....",
"......=&&&&&&&&&&&+.....",
".......-&&&&&&&&&-......",
"........=>&&&&&!+.......",
"..........,-#-,.........",
"........................",
"........................",
"........................",
"........................",
"........................",
"........................",
"........................",
"                        ",
"........................",
"........................",
"........................",
"........................",
"..........+@#@+.........",
"........$%&&&&&*=.......",
".......-;&&&&&&&&-......",
"......$;&&&&&&&&&&=.....",
"......%&&&&&&&&&&&>.....",
".....+&&&&&&&&&&&&&,....",
".....@&&&&&&&&&&&&&'....",
".....)&&&&&&&&&&&&&)....",
".....@&&&&&&&&&&&&&-....",
".....+&&&&&&&&&&&&&,....",
"......*&&&&&&&&&&&!.....",
"......=&&&&&&&&&&&+.....",
".......-&&&&&&&&&-......",
"........=>&&&&&!+.......",
"..........,-#-,.........",
"........................",
"........................",
"........................",
"........................",
"........................",
"........................",
"........................"};
